<?xml version="1.0" encoding="UTF-8" standalone="no"?>
<!-- Created with Inkscape (http://www.inkscape.org/) -->

<svg
   width="126.72859"
   height="39.742573"
   viewBox="0 0 33.530272 10.515223"
   version="1.1"
   id="svg5"
   xmlns="http://www.w3.org/2000/svg"
   xmlns:svg="http://www.w3.org/2000/svg">
  <defs
     id="defs2" />
  <g
     id="layer1"
     transform="translate(-1.4829333,-1.4505639)">
    <g
       aria-label="Parlementaire
Informatie Online"
       id="text3553"
       style="font-size:5.29167px;line-height:0.95;font-family:gotham;-inkscape-font-specification:gotham;letter-spacing:0px;word-spacing:0px;stroke-width:0.264583">
      <path
         d="M 2.7464228,2.618452 2.7774287,2.50218 Q 3.152083,2.4660065 3.4182168,2.398827 3.3536212,2.5796947 3.2786904,2.8716667 l -0.191203,0.7260543 0.2377118,0.015503 q 0.1653647,0.00775 0.3591514,-0.082682 0.1963706,-0.090434 0.3488161,-0.3178103 0.1550294,-0.2273764 0.1550294,-0.4909264 0,-0.2609661 -0.1886191,-0.4134117 -0.1860352,-0.1524455 -0.5710249,-0.1524455 -0.4392499,0 -0.8604131,0.2196249 -0.4211632,0.2170412 -0.6511234,0.5581058 -0.2273765,0.3384809 -0.2273765,0.6692102 0,0.1627809 0.059428,0.2842206 0.059428,0.1188559 0.2118735,0.2351279 0.1266074,0.093018 0.1266074,0.1808676 0,0.056844 -0.041341,0.095602 -0.041341,0.038757 -0.098185,0.038757 -0.1524455,0 -0.2945558,-0.2092896 -0.1421103,-0.2092897 -0.1421103,-0.5296838 0,-0.5865279 0.4495852,-1.0697028 0.5891117,-0.6356205 1.5812998,-0.6356205 0.3772382,0 0.6175338,0.098185 0.2428793,0.098185 0.3617352,0.2687176 0.1214397,0.1705323 0.1214397,0.3694867 0,0.2532147 -0.1705323,0.4986779 -0.1679485,0.2428794 -0.4986779,0.3927411 -0.3281456,0.1498617 -0.731222,0.1498617 -0.062012,0 -0.1937867,-0.00775 l -0.204122,0.803569 q -0.051676,0.204122 -0.1162721,0.4030764 0.2015382,0.049093 0.3514,0.049093 0.1886191,0 0.4056602,-0.072347 l -0.031006,0.1446941 q -0.2015382,0.05426 -0.3410646,0.05426 -0.1343588,0 -0.3927411,-0.028422 -0.2067059,-0.025838 -0.3358971,-0.025838 -0.2506308,0 -0.5141808,0.059428 L 1.9015126,5.0136561 Q 2.1702302,4.9697311 2.2684155,4.8870488 2.407942,4.7707767 2.4957919,4.4193768 L 2.8859492,2.8716667 q 0.025838,-0.1085206 0.025838,-0.1524456 0,-0.041341 -0.03359,-0.072347 -0.03359,-0.03359 -0.080099,-0.03359 -0.018087,0 -0.051677,0.00517 z"
         style="fill:#000080"
         id="path61432" />
      <path
         d="M 6.1958267,2.8742505 6.3663591,2.838077 6.1725723,3.4917842 q -0.116272,0.3901573 -0.2196249,0.8991705 -0.056844,0.2764691 -0.056844,0.3565676 0,0.080099 0.064596,0.080099 0.041341,0 0.131775,-0.05426 0.1601971,-0.095601 0.307475,-0.2377117 l 0.082682,0.1007691 Q 6.1880753,4.9051355 6.1053929,4.9619796 5.9400283,5.0756678 5.7901665,5.1299281 q -0.098185,0.036174 -0.1912029,0.036174 -0.067179,0 -0.1007691,-0.031006 -0.03359,-0.031006 -0.03359,-0.090434 0,-0.038757 0.020671,-0.1059368 L 5.5886283,4.5873253 Q 5.3664195,4.8534591 5.0589446,5.044662 4.8703255,5.1635178 4.7127122,5.1635178 q -0.1498617,0 -0.2299602,-0.1059367 -0.1085206,-0.1421103 -0.1085206,-0.3720705 0,-0.2738853 0.1446941,-0.6097823 0.1472779,-0.335897 0.3927411,-0.6097823 0.2454632,-0.2738852 0.5167647,-0.4030764 0.2092896,-0.098185 0.5374352,-0.098185 0.082682,0 0.1679485,0.010335 z m -0.320394,0.395325 q -0.1395265,-0.028422 -0.2351279,-0.028422 -0.2325441,0 -0.4056603,0.1291912 -0.1731161,0.1266073 -0.3229779,0.4599205 -0.1472779,0.3307293 -0.1472779,0.6614587 0,0.1757 0.059428,0.2532147 0.059428,0.077515 0.1550294,0.077515 0.1782838,0 0.3824059,-0.1912029 0.204122,-0.1937868 0.2997235,-0.555522 z"
         style="fill:#121469"
         id="path61434" />
      <path
         d="M 7.1337545,5.0911708 H 6.7487648 L 6.9296325,4.3961224 q 0.1317749,-0.511597 0.2299602,-0.9715176 0.023254,-0.1136882 0.023254,-0.1421102 0,-0.062012 -0.056844,-0.062012 -0.038757,0 -0.1188558,0.05426 -0.080099,0.051677 -0.2893882,0.2609661 l -0.080099,-0.090434 q 0.2480471,-0.2661338 0.4935103,-0.3979087 0.248047,-0.1343588 0.379822,-0.1343588 0.046509,0 0.072347,0.023254 0.028422,0.020671 0.028422,0.05426 0,0.03359 -0.03359,0.1782838 L 7.4670677,3.6313107 Q 7.7280338,3.2204828 8.0561794,2.9285108 8.2137926,2.7889843 8.3197293,2.7889843 q 0.077515,0 0.1291912,0.051677 0.051676,0.049093 0.051676,0.1162721 0,0.069763 -0.051676,0.1188558 Q 8.3998278,3.1248814 8.1982896,3.1920608 8.0070867,3.2566563 7.885647,3.3470902 7.7667912,3.437524 7.6220971,3.6235592 7.4799868,3.8095945 7.4231427,3.9491209 7.3662986,4.0860636 7.2500265,4.5899091 Z"
         style="fill:#121469"
         id="path61436" />
      <path
         d="m 9.3170849,4.4684694 0.08785,0.093018 Q 9.2033967,4.7888635 8.9269276,4.9774826 8.6530424,5.1635178 8.4747586,5.1635178 q -0.080099,0 -0.131775,-0.062012 -0.051677,-0.059428 -0.051677,-0.1653647 0,-0.2067059 0.160197,-0.8578293 L 8.7305571,2.9440137 Q 8.8830026,2.3290638 8.9863555,2.1197741 9.1465526,1.8019639 9.4385246,1.6262639 q 0.2945558,-0.1757 0.6201174,-0.1757 0.111105,0 0.173116,0.05426 0.0646,0.051676 0.0646,0.1266074 0,0.082682 -0.06201,0.1369426 -0.06201,0.051676 -0.180867,0.051676 -0.077515,0 -0.2196255,-0.025838 -0.1240235,-0.020671 -0.2299602,-0.020671 -0.1059368,0 -0.1601971,0.043925 Q 9.3687614,1.8794786 9.3067496,2.078433 9.2473217,2.2773874 9.1103791,2.8639152 L 8.8545806,3.9465371 q -0.191203,0.8139043 -0.191203,0.8500778 0,0.082682 0.059428,0.082682 0.056844,0 0.1653647,-0.067179 0.2144573,-0.1343588 0.4289146,-0.3436485 z"
         style="fill:#121469"
         id="path61438" />
      <path
         d="m 10.864795,4.4426312 0.08527,0.1136882 q -0.633036,0.6020308 -1.0852055,0.6020308 -0.1834515,0 -0.2816368,-0.1240235 -0.095601,-0.1240235 -0.095601,-0.3979088 0,-0.5529381 0.335897,-1.1007087 0.3772377,-0.6227013 0.9017547,-0.6227013 0.183451,0 0.279052,0.093018 0.09819,0.090434 0.09819,0.2506308 0,0.1679485 -0.116272,0.3307294 -0.116272,0.1627809 -0.415996,0.3384808 -0.149862,0.085266 -0.640788,0.307475 -0.023254,0.1395264 -0.023254,0.2661338 0,0.1834514 0.056844,0.2557985 0.059428,0.072347 0.1705323,0.072347 0.105937,0 0.232544,-0.059428 0.170532,-0.080099 0.498678,-0.3255617 z M 9.9604569,4.0679768 q 0.4159951,-0.1860353 0.6252851,-0.4004926 0.14211,-0.1498617 0.14211,-0.2971396 0,-0.1111044 -0.05943,-0.1757 -0.05684,-0.067179 -0.149861,-0.067179 -0.0956,0 -0.186036,0.072347 -0.121439,0.095601 -0.204122,0.2893882 Q 10.00955,3.773421 9.9604569,4.0679768 Z"
         style="fill:#121469"
         id="path61440" />
      <path
         d="M 11.378976,3.5124548 11.301461,3.4091019 Q 11.55726,3.1533034 11.78722,3.0318637 12.017181,2.910424 12.148955,2.910424 q 0.05426,0 0.0801,0.023254 0.02842,0.023255 0.02842,0.064596 0,0.051677 -0.04134,0.1989544 -0.05943,0.2170412 -0.08268,0.3436485 0.620117,-0.6304529 0.948263,-0.6304529 0.08527,0 0.129191,0.046509 0.04392,0.046509 0.04392,0.1472779 0,0.1085205 -0.07752,0.3694867 0.294556,-0.307475 0.511597,-0.4340823 0.217041,-0.1291912 0.338481,-0.1291912 0.10852,0 0.167948,0.062012 0.05943,0.062012 0.05943,0.1912029 0,0.077515 -0.02584,0.1834515 -0.02584,0.1059367 -0.188619,0.6459557 -0.204122,0.6692102 -0.204122,0.7984014 0,0.08785 0.07235,0.08785 0.04909,0 0.0956,-0.031006 0.152445,-0.1085206 0.312642,-0.2687176 l 0.08527,0.093018 q -0.05426,0.043925 -0.204122,0.1808677 -0.206706,0.1860352 -0.28422,0.232544 -0.149862,0.08785 -0.253215,0.08785 -0.07752,0 -0.136943,-0.077515 -0.05943,-0.074931 -0.05943,-0.2092896 0,-0.1240236 0.03617,-0.2893882 0.03617,-0.1679485 0.211873,-0.7493088 0.131775,-0.4366661 0.131775,-0.5296837 0,-0.08785 -0.07751,-0.08785 -0.0646,0 -0.173116,0.064596 -0.222209,0.1343588 -0.372071,0.3281455 -0.103353,0.1343588 -0.180868,0.4263309 -0.173116,0.6382043 -0.258382,1.0412807 h -0.366903 l 0.38499,-1.578716 q 0.04134,-0.1705323 0.04134,-0.1963705 0,-0.041341 -0.02067,-0.062012 -0.02067,-0.023254 -0.05943,-0.023254 -0.06976,0 -0.217042,0.1085206 -0.255798,0.1834514 -0.369486,0.3565676 -0.111105,0.1705323 -0.191203,0.5219323 L 11.784636,5.0911708 H 11.41515 l 0.291972,-1.2324837 q 0.129191,-0.5348514 0.129191,-0.5813602 0,-0.059428 -0.04651,-0.059428 -0.100769,0 -0.410828,0.2945558 z"
         style="fill:#121469"
         id="path61442" />
      <path
         d="m 15.944591,4.4426312 0.08527,0.1136882 q -0.633036,0.6020308 -1.085205,0.6020308 -0.183452,0 -0.281637,-0.1240235 -0.0956,-0.1240235 -0.0956,-0.3979088 0,-0.5529381 0.335897,-1.1007087 0.377238,-0.6227013 0.901754,-0.6227013 0.183451,0 0.279053,0.093018 0.09819,0.090434 0.09819,0.2506308 0,0.1679485 -0.116272,0.3307294 -0.116272,0.1627809 -0.415996,0.3384808 -0.149861,0.085266 -0.640788,0.307475 -0.02325,0.1395264 -0.02325,0.2661338 0,0.1834514 0.05684,0.2557985 0.05943,0.072347 0.170532,0.072347 0.105937,0 0.232544,-0.059428 0.170533,-0.080099 0.498678,-0.3255617 z M 15.040253,4.0679768 q 0.415996,-0.1860353 0.625285,-0.4004926 0.142111,-0.1498617 0.142111,-0.2971396 0,-0.1111044 -0.05943,-0.1757 -0.05684,-0.067179 -0.149862,-0.067179 -0.0956,0 -0.186035,0.072347 -0.12144,0.095601 -0.204122,0.2893882 -0.118856,0.2842206 -0.167949,0.5787764 z"
         style="fill:#121469"
         id="path61444" />
      <path
         d="m 16.466523,3.5227901 -0.08785,-0.090434 q 0.33073,-0.3152264 0.5271,-0.4185793 0.196371,-0.103353 0.335897,-0.103353 0.05426,0 0.08527,0.023254 0.03101,0.023255 0.03101,0.05426 0,0.023254 -0.01292,0.082682 l -0.116272,0.5193484 q 0.26355,-0.291972 0.661459,-0.5451867 0.211874,-0.1317749 0.348816,-0.1317749 0.100769,0 0.157613,0.064595 0.05684,0.064596 0.05684,0.1860353 0,0.080099 -0.02325,0.1808676 -0.04134,0.1679485 -0.217041,0.731222 -0.165365,0.5270999 -0.165365,0.7002161 0,0.051676 0.0155,0.077515 0.0155,0.025838 0.04393,0.025838 0.07493,0 0.235128,-0.1446941 0.113688,-0.1033529 0.227377,-0.1912029 l 0.06459,0.093018 q -0.237712,0.26355 -0.49351,0.423747 -0.162781,0.1033529 -0.268718,0.1033529 -0.09818,0 -0.152445,-0.072347 -0.05426,-0.069763 -0.05426,-0.2299603 0,-0.2299602 0.286805,-1.1446336 0.08785,-0.3255618 0.08785,-0.379822 0,-0.080099 -0.0956,-0.080099 -0.103353,0 -0.266133,0.1085206 -0.24288,0.160197 -0.405661,0.3772382 -0.103353,0.1395264 -0.173116,0.4444176 L 16.89027,5.088587 H 16.505281 Q 16.613801,4.7010135 16.6939,4.3470297 l 0.22996,-0.9818528 q 0.01292,-0.059428 0.01292,-0.085266 0,-0.069763 -0.05168,-0.069763 -0.04134,0 -0.118856,0.05426 -0.160197,0.1059368 -0.299724,0.2583823 z"
         style="fill:#121469"
         id="path61446" />
      <path
         d="M 19.54644,2.5202667 19.957268,2.3626535 19.771233,3.086124 h 0.534851 l -0.04134,0.1834515 h -0.534851 l -0.227377,0.8655807 q -0.105937,0.3901573 -0.105937,0.5426029 0,0.069763 0.02842,0.1007691 0.031,0.031006 0.08268,0.031006 0.0801,0 0.245463,-0.095601 0.217041,-0.1266073 0.413412,-0.2868044 l 0.09819,0.1188559 q -0.565857,0.4263308 -0.75706,0.5219323 -0.191203,0.095601 -0.307475,0.095601 -0.0956,0 -0.152446,-0.069763 -0.05426,-0.069763 -0.05426,-0.2273764 0,-0.1860353 0.09819,-0.5684411 l 0.266134,-1.0283616 h -0.418579 l 0.04651,-0.1834515 h 0.415995 z"
         style="fill:#121469"
         id="path61448" />
      <path
         d="m 22.277543,2.8742505 0.170532,-0.036173 -0.193787,0.6537072 q -0.116272,0.3901573 -0.219625,0.8991705 -0.05684,0.2764691 -0.05684,0.3565676 0,0.080099 0.0646,0.080099 0.04134,0 0.131775,-0.05426 0.160197,-0.095601 0.307475,-0.2377117 l 0.08268,0.1007691 q -0.294556,0.2687176 -0.377238,0.3255617 -0.165365,0.1136882 -0.315226,0.1679485 -0.09819,0.036174 -0.191203,0.036174 -0.06718,0 -0.100769,-0.031006 -0.03359,-0.031006 -0.03359,-0.090434 0,-0.038757 0.02067,-0.1059368 l 0.103353,-0.3513999 q -0.222208,0.2661338 -0.529683,0.4573367 -0.188619,0.1188558 -0.346233,0.1188558 -0.149861,0 -0.22996,-0.1059367 -0.108521,-0.1421103 -0.108521,-0.3720705 0,-0.2738853 0.144695,-0.6097823 0.147277,-0.335897 0.392741,-0.6097823 0.245463,-0.2738852 0.516764,-0.4030764 0.20929,-0.098185 0.537436,-0.098185 0.08268,0 0.167948,0.010335 z m -0.320394,0.395325 q -0.139527,-0.028422 -0.235128,-0.028422 -0.232544,0 -0.40566,0.1291912 -0.173117,0.1266073 -0.322978,0.4599205 -0.147278,0.3307293 -0.147278,0.6614587 0,0.1757 0.05943,0.2532147 0.05943,0.077515 0.155029,0.077515 0.178284,0 0.382406,-0.1912029 0.204122,-0.1937868 0.299723,-0.555522 z"
         style="fill:#121469"
         id="path61450" />
      <path
         d="m 23.838172,1.8071315 q 0.0801,0 0.131775,0.05426 0.05168,0.051676 0.05168,0.1343588 0,0.1136883 -0.0801,0.2015382 -0.07751,0.085266 -0.1757,0.085266 -0.07751,0 -0.129191,-0.05426 -0.05168,-0.05426 -0.05168,-0.1421103 0,-0.116272 0.07493,-0.1963705 0.07493,-0.082682 0.178284,-0.082682 z m -1.018026,1.710491 -0.113689,-0.08785 q 0.258383,-0.2842206 0.470256,-0.4030764 0.214458,-0.1214397 0.364319,-0.1214397 0.08268,0 0.126608,0.036174 0.04393,0.036173 0.04393,0.098185 0,0.074931 -0.167949,0.6356205 -0.273885,0.9172572 -0.273885,1.1058763 0,0.036173 0.01809,0.062012 0.01809,0.023254 0.03876,0.023254 0.08268,0 0.423747,-0.3203941 l 0.100769,0.098185 q -0.353984,0.3333132 -0.516765,0.4263308 -0.16278,0.093018 -0.266133,0.093018 -0.09043,0 -0.144694,-0.056844 -0.05168,-0.056844 -0.05168,-0.1576132 0,-0.3229779 0.387574,-1.5787159 0.01809,-0.059428 0.01809,-0.1059368 0,-0.051676 -0.04651,-0.051676 -0.05168,0 -0.118855,0.041341 -0.0646,0.041341 -0.291972,0.26355 z"
         style="fill:#121469"
         id="path61452" />
      <path
         d="m 24.484126,5.0911708 h -0.384989 l 0.180867,-0.6950484 q 0.131775,-0.511597 0.229961,-0.9715176 0.02325,-0.1136882 0.02325,-0.1421102 0,-0.062012 -0.05684,-0.062012 -0.03876,0 -0.118856,0.05426 -0.0801,0.051677 -0.289388,0.2609661 l -0.0801,-0.090434 q 0.248047,-0.2661338 0.493511,-0.3979087 0.248047,-0.1343588 0.379822,-0.1343588 0.04651,0 0.07235,0.023254 0.02842,0.020671 0.02842,0.05426 0,0.03359 -0.03359,0.1782838 L 24.81744,3.6313107 q 0.260966,-0.4108279 0.589111,-0.7027999 0.157613,-0.1395265 0.26355,-0.1395265 0.07752,0 0.129191,0.051677 0.05168,0.049093 0.05168,0.1162721 0,0.069763 -0.05168,0.1188558 -0.04909,0.049093 -0.250631,0.1162721 -0.191202,0.064595 -0.312642,0.1550294 -0.118856,0.090434 -0.26355,0.276469 -0.14211,0.1860353 -0.198954,0.3255617 -0.05684,0.1369427 -0.173117,0.6407882 z"
         style="fill:#121469"
         id="path61454" />
      <path
         d="m 26.94651,4.4426312 0.08527,0.1136882 q -0.633036,0.6020308 -1.085205,0.6020308 -0.183452,0 -0.281637,-0.1240235 -0.0956,-0.1240235 -0.0956,-0.3979088 0,-0.5529381 0.335897,-1.1007087 0.377239,-0.6227013 0.901755,-0.6227013 0.183451,0 0.279053,0.093018 0.09818,0.090434 0.09818,0.2506308 0,0.1679485 -0.116272,0.3307294 -0.116272,0.1627809 -0.415996,0.3384808 -0.149861,0.085266 -0.640788,0.307475 -0.02325,0.1395264 -0.02325,0.2661338 0,0.1834514 0.05684,0.2557985 0.05943,0.072347 0.170532,0.072347 0.105937,0 0.232544,-0.059428 0.170533,-0.080099 0.498678,-0.3255617 z M 26.042172,4.0679768 q 0.415996,-0.1860353 0.625285,-0.4004926 0.14211,-0.1498617 0.14211,-0.2971396 0,-0.1111044 -0.05943,-0.1757 -0.05684,-0.067179 -0.149862,-0.067179 -0.0956,0 -0.186035,0.072347 -0.12144,0.095601 -0.204122,0.2893882 -0.118856,0.2842206 -0.167949,0.5787764 z"
         style="fill:#121469"
         id="path61456" />
      <path
         d="m 3.6326741,7.5552004 -0.043925,0.1395265 q -0.291972,0.018087 -0.3875734,0.072347 -0.062012,0.036174 -0.103353,0.1085206 -0.049093,0.093018 -0.2868043,0.9870204 -0.077515,0.2945559 -0.395325,1.6097221 0.1808676,0.05943 0.4573367,0.05168 l -0.041341,0.124024 q -0.082682,0.0026 -0.3307294,-0.02067 -0.1782838,-0.0155 -0.4159955,-0.0155 -0.3281456,0 -0.6020308,0.04909 l 0.031006,-0.136943 q 0.2842206,-0.04392 0.4314985,-0.113688 0.036174,-0.01809 0.056844,-0.04392 0.038757,-0.04651 0.082682,-0.186035 0.046509,-0.142111 0.3100587,-1.1523854 0.077515,-0.291972 0.3152265,-1.2764086 -0.1782838,-0.00517 -0.4366662,0.049093 L 2.3226758,7.6585533 Q 2.4311964,7.6301313 2.5448846,7.619796 2.6585728,7.6068769 3.0590654,7.5965416 3.4337197,7.5862063 3.6326741,7.5552004 Z"
         style="font-family:'Monotype Corsiva';-inkscape-font-specification:'Monotype Corsiva'"
         id="path61458" />
      <path
         d="m 3.6636799,9.0434826 -0.08785,-0.090434 q 0.3307294,-0.3152264 0.5271,-0.4185793 0.1963705,-0.1033529 0.335897,-0.1033529 0.05426,0 0.085266,0.023254 0.031006,0.023254 0.031006,0.05426 0,0.023254 -0.012919,0.082682 L 4.4259078,9.110662 Q 4.6894577,8.8186899 5.0873665,8.5654753 5.29924,8.4337003 5.4361826,8.4337003 q 0.1007691,0 0.1576132,0.064596 0.056844,0.064596 0.056844,0.1860352 0,0.080099 -0.023254,0.1808677 -0.041341,0.1679485 -0.2170411,0.7312219 -0.1653647,0.5271003 -0.1653647,0.7002163 0,0.05168 0.015503,0.07751 0.015503,0.02584 0.043925,0.02584 0.074931,0 0.2351279,-0.144694 0.1136883,-0.103353 0.2273765,-0.191203 l 0.064596,0.09302 q -0.2377118,0.26355 -0.4935103,0.423747 -0.1627808,0.103353 -0.2687176,0.103353 -0.098185,0 -0.1524455,-0.07235 -0.05426,-0.06976 -0.05426,-0.22996 0,-0.22996 0.2868043,-1.1446337 0.08785,-0.3255617 0.08785,-0.379822 0,-0.080099 -0.095601,-0.080099 -0.103353,0 -0.2661338,0.1085205 Q 4.6326136,9.0460664 4.4698327,9.2631075 4.3664798,9.402634 4.2967166,9.7075251 L 4.0874269,10.609279 H 3.7024373 Q 3.8109578,10.221706 3.8910564,9.8677222 L 4.1210166,8.8858693 q 0.012919,-0.059428 0.012919,-0.085266 0,-0.069763 -0.051676,-0.069763 -0.041341,0 -0.1188559,0.05426 -0.160197,0.1059368 -0.2997235,0.2583824 z"
         style="font-family:'Monotype Corsiva';-inkscape-font-specification:'Monotype Corsiva'"
         id="path61460" />
      <path
         d="M 6.1079766,8.6068164 H 6.7255103 Q 6.8779559,7.9608607 7.0743265,7.6456342 7.270697,7.3304078 7.5859235,7.1495402 7.9011499,6.9660887 8.1802028,6.9660887 q 0.1576132,0 0.2377117,0.062012 0.080099,0.062012 0.080099,0.1472779 0,0.077515 -0.05426,0.1291912 -0.05426,0.051676 -0.1421102,0.051676 -0.090434,0 -0.3410647,-0.05426 -0.1240235,-0.025838 -0.1937867,-0.025838 -0.1705324,0 -0.307475,0.2118735 -0.1369426,0.2092897 -0.219625,0.5684411 L 7.1105,8.6068164 H 7.7926293 L 7.7512881,8.7902679 H 7.0614073 l -0.408244,1.6484791 q -0.1886191,0.751893 -0.6046146,1.139466 -0.4134117,0.387574 -0.8991705,0.387574 -0.1627809,0 -0.2454632,-0.0646 -0.085266,-0.06201 -0.085266,-0.155029 0,-0.0801 0.059428,-0.129192 0.056844,-0.04651 0.1653647,-0.04651 0.05426,0 0.160197,0.01292 0.1808676,0.02325 0.3462323,0.02325 0.2557985,0 0.3720705,-0.12144 0.1162721,-0.118855 0.2325441,-0.586527 L 6.6790015,8.7902679 H 6.0614678 Z"
         style="font-family:'Monotype Corsiva';-inkscape-font-specification:'Monotype Corsiva'"
         id="path61462" />
      <path
         d="m 8.9941072,8.4388679 q 0.2532146,0 0.4211631,0.2015382 0.1679486,0.2015383 0.1679486,0.5606897 0,0.5736087 -0.4030765,1.0309452 -0.4030764,0.454753 -0.8526616,0.454753 -0.2764691,0 -0.4470014,-0.180868 -0.1679485,-0.180867 -0.1679485,-0.49351 0,-0.5426026 0.3100588,-1.0025231 0.3901573,-0.571025 0.9715175,-0.571025 z m -0.219625,0.1937868 q -0.219625,0 -0.4263308,0.3152264 -0.204122,0.3126426 -0.204122,0.8655808 0,0.3358971 0.1266073,0.5296841 0.093018,0.14211 0.248047,0.14211 0.2170412,0 0.395325,-0.268718 0.2273764,-0.3488158 0.2273764,-0.8655805 0,-0.3875735 -0.1059368,-0.5529381 Q 8.9320954,8.6326547 8.7744822,8.6326547 Z"
         style="font-family:'Monotype Corsiva';-inkscape-font-specification:'Monotype Corsiva'"
         id="path61464" />
      <path
         d="M 10.30669,10.611863 H 9.9216998 L 10.102567,9.9168148 q 0.131775,-0.511597 0.229961,-0.9715175 0.02325,-0.1136882 0.02325,-0.1421103 0,-0.062012 -0.05684,-0.062012 -0.03876,0 -0.118856,0.05426 -0.0801,0.051676 -0.289388,0.2609662 l -0.080099,-0.090434 q 0.2480465,-0.2661338 0.4935105,-0.3979088 0.248047,-0.1343588 0.379822,-0.1343588 0.04651,0 0.07235,0.023254 0.02842,0.020671 0.02842,0.05426 0,0.03359 -0.03359,0.1782838 l -0.111104,0.4625043 q 0.260966,-0.4108279 0.589111,-0.7027999 0.157614,-0.1395264 0.26355,-0.1395264 0.07752,0 0.129191,0.051676 0.05168,0.049093 0.05168,0.1162721 0,0.069763 -0.05168,0.1188559 -0.04909,0.049093 -0.25063,0.116272 -0.191203,0.064596 -0.312643,0.1550294 -0.118856,0.090434 -0.26355,0.2764691 -0.14211,0.1860352 -0.198954,0.3255617 -0.05684,0.1369426 -0.173116,0.6407886 z"
         style="font-family:'Monotype Corsiva';-inkscape-font-specification:'Monotype Corsiva'"
         id="path61466" />
      <path
         d="m 11.484912,9.0331473 -0.07751,-0.103353 q 0.255798,-0.2557985 0.485758,-0.3772381 0.229961,-0.1214397 0.361736,-0.1214397 0.05426,0 0.0801,0.023254 0.02842,0.023254 0.02842,0.064596 0,0.051676 -0.04134,0.1989543 -0.05943,0.2170412 -0.08268,0.3436485 0.620117,-0.6304528 0.948263,-0.6304528 0.08527,0 0.129191,0.046509 0.04392,0.046509 0.04392,0.1472779 0,0.1085206 -0.07752,0.3694867 0.294556,-0.3074749 0.511597,-0.4340823 0.217041,-0.1291911 0.338481,-0.1291911 0.108521,0 0.167948,0.062012 0.05943,0.062012 0.05943,0.1912029 0,0.077515 -0.02584,0.1834515 -0.02584,0.1059367 -0.188619,0.6459558 -0.204122,0.6692106 -0.204122,0.7984016 0,0.08785 0.07235,0.08785 0.04909,0 0.0956,-0.03101 0.152445,-0.108521 0.312642,-0.268718 l 0.08527,0.09302 q -0.05426,0.04392 -0.204122,0.180867 -0.206706,0.186036 -0.28422,0.232545 -0.149862,0.08785 -0.253215,0.08785 -0.07752,0 -0.136943,-0.07752 -0.05943,-0.07493 -0.05943,-0.20929 0,-0.124023 0.03617,-0.289388 0.03617,-0.1679485 0.211874,-0.7493087 0.131775,-0.4366661 0.131775,-0.5296838 0,-0.08785 -0.07752,-0.08785 -0.0646,0 -0.173116,0.064596 -0.222209,0.1343588 -0.372071,0.3281456 -0.103353,0.1343588 -0.180867,0.4263308 -0.173117,0.6382045 -0.258383,1.0412805 h -0.366903 l 0.38499,-1.5787157 q 0.04134,-0.1705324 0.04134,-0.1963706 0,-0.041341 -0.02067,-0.062012 -0.02067,-0.023255 -0.05943,-0.023255 -0.06976,0 -0.217042,0.1085206 Q 12.394418,9.0434826 12.28073,9.2165987 12.169625,9.387131 12.089527,9.738531 l -0.198955,0.873332 h -0.369486 l 0.291972,-1.2324834 q 0.129191,-0.5348514 0.129191,-0.5813602 0,-0.059428 -0.04651,-0.059428 -0.100769,0 -0.410828,0.2945559 z"
         style="font-family:'Monotype Corsiva';-inkscape-font-specification:'Monotype Corsiva'"
         id="path61468" />
      <path
         d="m 16.458772,8.3949429 0.170533,-0.036174 -0.193787,0.6537073 q -0.116272,0.3901573 -0.219625,0.8991704 -0.05684,0.2764689 -0.05684,0.3565679 0,0.0801 0.0646,0.0801 0.04134,0 0.131775,-0.05426 0.160198,-0.0956 0.307475,-0.237712 l 0.08268,0.100769 q -0.294556,0.268718 -0.377238,0.325562 -0.165365,0.113688 -0.315227,0.167949 -0.09818,0.03617 -0.191203,0.03617 -0.06718,0 -0.100769,-0.03101 -0.03359,-0.03101 -0.03359,-0.09043 0,-0.03876 0.02067,-0.105936 l 0.103353,-0.3514 q -0.222209,0.266133 -0.529684,0.457336 -0.188619,0.118856 -0.346232,0.118856 -0.149862,0 -0.22996,-0.105936 -0.108521,-0.142111 -0.108521,-0.372071 0,-0.2738853 0.144694,-0.6097823 0.147278,-0.335897 0.392741,-0.6097822 0.245463,-0.2738853 0.516765,-0.4030765 0.20929,-0.098185 0.537435,-0.098185 0.08268,0 0.167949,0.010335 z m -0.320394,0.395325 q -0.139526,-0.028422 -0.235128,-0.028422 -0.232544,0 -0.40566,0.1291912 -0.173116,0.1266073 -0.322978,0.4599205 -0.147278,0.3307294 -0.147278,0.6614585 0,0.1757 0.05943,0.253215 0.05943,0.07752 0.15503,0.07752 0.178283,0 0.382406,-0.191203 0.204122,-0.193787 0.299723,-0.5555223 z"
         style="font-family:'Monotype Corsiva';-inkscape-font-specification:'Monotype Corsiva'"
         id="path61470" />
      <path
         d="M 17.642163,8.0409592 18.052991,7.883346 17.866956,8.6068164 h 0.534851 l -0.04134,0.1834515 h -0.534851 l -0.227377,0.8655808 q -0.105936,0.3901573 -0.105936,0.5426033 0,0.06976 0.02842,0.100769 0.03101,0.03101 0.08268,0.03101 0.0801,0 0.245463,-0.0956 0.217041,-0.126607 0.413412,-0.2868043 l 0.09818,0.1188563 q -0.565857,0.42633 -0.75706,0.521932 -0.191203,0.0956 -0.307475,0.0956 -0.0956,0 -0.152446,-0.06976 -0.05426,-0.06976 -0.05426,-0.227376 0,-0.186036 0.09819,-0.5684415 l 0.266134,-1.0283616 h -0.418579 l 0.04651,-0.1834515 h 0.415995 z"
         style="font-family:'Monotype Corsiva';-inkscape-font-specification:'Monotype Corsiva'"
         id="path61472" />
      <path
         d="m 19.711806,7.327824 q 0.0801,0 0.131775,0.05426 0.05168,0.051676 0.05168,0.1343588 0,0.1136882 -0.0801,0.2015382 -0.07751,0.085266 -0.1757,0.085266 -0.07751,0 -0.129191,-0.05426 -0.05168,-0.05426 -0.05168,-0.1421103 0,-0.1162721 0.07493,-0.1963706 0.07493,-0.082682 0.178284,-0.082682 z m -1.018026,1.7104909 -0.113688,-0.08785 q 0.258382,-0.2842205 0.470256,-0.4030764 0.214457,-0.1214397 0.364319,-0.1214397 0.08268,0 0.126607,0.036174 0.04392,0.036174 0.04392,0.098185 0,0.074931 -0.167949,0.6356205 -0.273885,0.9172569 -0.273885,1.1058759 0,0.03617 0.01809,0.06201 0.01809,0.02326 0.03876,0.02326 0.08268,0 0.423747,-0.320394 l 0.100769,0.09818 q -0.353983,0.333313 -0.516764,0.426331 -0.162781,0.09302 -0.266134,0.09302 -0.09043,0 -0.144694,-0.05684 -0.05168,-0.05684 -0.05168,-0.157613 0,-0.322978 0.387574,-1.578716 0.01809,-0.059428 0.01809,-0.1059368 0,-0.051676 -0.04651,-0.051676 -0.05168,0 -0.118856,0.041341 -0.0646,0.041341 -0.291972,0.2635499 z"
         style="font-family:'Monotype Corsiva';-inkscape-font-specification:'Monotype Corsiva'"
         id="path61474" />
      <path
         d="m 21.233677,9.9633236 0.08527,0.1136884 q -0.633037,0.602031 -1.085206,0.602031 -0.183451,0 -0.281637,-0.124024 -0.0956,-0.124023 -0.0956,-0.397909 0,-0.5529378 0.335897,-1.1007083 0.377238,-0.6227014 0.901754,-0.6227014 0.183452,0 0.279053,0.093018 0.09819,0.090434 0.09819,0.2506309 0,0.1679485 -0.116272,0.3307293 -0.116272,0.1627809 -0.415995,0.3384809 -0.149862,0.085266 -0.640788,0.3074749 -0.02325,0.1395265 -0.02325,0.2661341 0,0.183451 0.05684,0.255798 0.05943,0.07235 0.170533,0.07235 0.105937,0 0.232544,-0.05943 0.170532,-0.0801 0.498678,-0.3255614 z M 20.329339,9.5886692 q 0.415995,-0.1860352 0.625285,-0.4004925 0.14211,-0.1498618 0.14211,-0.2971397 0,-0.1111044 -0.05943,-0.1757 -0.05684,-0.067179 -0.149862,-0.067179 -0.0956,0 -0.186035,0.072347 -0.12144,0.095601 -0.204122,0.2893882 -0.118856,0.2842205 -0.167948,0.5787763 z"
         style="font-family:'Monotype Corsiva';-inkscape-font-specification:'Monotype Corsiva'"
         id="path61476" />
      <path
         d="m 24.714087,7.5190269 q 0.325561,0 0.586528,0.1524456 0.263549,0.1498617 0.408244,0.4314984 0.144694,0.2790529 0.144694,0.6511235 0,0.4857587 -0.260966,0.963766 -0.260967,0.4780076 -0.638205,0.7208866 -0.377238,0.242879 -0.837158,0.242879 -0.529684,0 -0.85783,-0.330729 -0.325562,-0.330729 -0.325562,-0.8707483 0,-0.5167647 0.260967,-0.9973558 0.260966,-0.4831749 0.640788,-0.7234705 0.379822,-0.2402955 0.8785,-0.2402955 z m -0.188619,0.1860353 q -0.299724,0 -0.552939,0.1782838 -0.25063,0.1756999 -0.410827,0.5529381 -0.160198,0.3746544 -0.160198,0.8707484 0,0.5684411 0.250631,0.8784995 0.250631,0.307475 0.625286,0.307475 0.279052,0 0.527099,-0.183451 0.250631,-0.183452 0.410828,-0.5761927 0.162781,-0.3953249 0.162781,-0.9069219 0,-0.5296837 -0.248047,-0.8242396 -0.245463,-0.2971396 -0.604614,-0.2971396 z"
         style="font-family:'Monotype Corsiva';-inkscape-font-specification:'Monotype Corsiva'"
         id="path61478" />
      <path
         d="M 26.093849,9.0434826 26.006,8.9530487 q 0.330729,-0.3152264 0.527099,-0.4185793 0.196371,-0.1033529 0.335897,-0.1033529 0.05426,0 0.08527,0.023254 0.03101,0.023254 0.03101,0.05426 0,0.023254 -0.01292,0.082682 L 26.856077,9.110662 q 0.26355,-0.2919721 0.661459,-0.5451867 0.211874,-0.131775 0.348816,-0.131775 0.100769,0 0.157613,0.064596 0.05684,0.064596 0.05684,0.1860352 0,0.080099 -0.02325,0.1808677 -0.04134,0.1679485 -0.217041,0.7312219 -0.165365,0.5271003 -0.165365,0.7002163 0,0.05168 0.0155,0.07751 0.0155,0.02584 0.04393,0.02584 0.07493,0 0.235128,-0.144694 0.113688,-0.103353 0.227377,-0.191203 l 0.06459,0.09302 q -0.237712,0.26355 -0.49351,0.423747 -0.162781,0.103353 -0.268718,0.103353 -0.09818,0 -0.152445,-0.07235 -0.05426,-0.06976 -0.05426,-0.22996 0,-0.22996 0.286805,-1.1446337 0.08785,-0.3255617 0.08785,-0.379822 0,-0.080099 -0.0956,-0.080099 -0.103353,0 -0.266133,0.1085205 -0.24288,0.1601971 -0.405661,0.3772382 -0.103353,0.1395265 -0.173116,0.4444176 l -0.20929,0.9017539 h -0.384989 q 0.10852,-0.387573 0.188619,-0.7415568 l 0.22996,-0.9818529 q 0.01292,-0.059428 0.01292,-0.085266 0,-0.069763 -0.05168,-0.069763 -0.04134,0 -0.118856,0.05426 -0.160197,0.1059368 -0.299724,0.2583824 z"
         style="font-family:'Monotype Corsiva';-inkscape-font-specification:'Monotype Corsiva'"
         id="path61480" />
      <path
         d="m 29.525165,9.9891618 0.08785,0.093017 q -0.201538,0.227377 -0.478007,0.415996 -0.273885,0.186035 -0.452169,0.186035 -0.0801,0 -0.131775,-0.06201 -0.05168,-0.05943 -0.05168,-0.165365 0,-0.206706 0.160197,-0.8578295 l 0.279053,-1.1342983 q 0.152446,-0.6149499 0.255799,-0.8242396 0.160197,-0.3178103 0.452169,-0.4935102 0.294556,-0.1757 0.620117,-0.1757 0.111105,0 0.173117,0.05426 0.0646,0.051676 0.0646,0.1266073 0,0.082682 -0.06201,0.1369426 -0.06201,0.051677 -0.180867,0.051677 -0.07752,0 -0.219625,-0.025838 -0.124024,-0.020671 -0.22996,-0.020671 -0.105937,0 -0.160197,0.043925 -0.07493,0.062012 -0.136943,0.2609661 -0.05943,0.1989544 -0.196371,0.7854823 l -0.255798,1.0826219 q -0.191203,0.8139044 -0.191203,0.8500774 0,0.08268 0.05943,0.08268 0.05684,0 0.165365,-0.06718 0.214457,-0.134358 0.428914,-0.3436482 z"
         style="font-family:'Monotype Corsiva';-inkscape-font-specification:'Monotype Corsiva'"
         id="path61482" />
      <path
         d="m 30.819661,7.327824 q 0.0801,0 0.131775,0.05426 0.05168,0.051676 0.05168,0.1343588 0,0.1136882 -0.0801,0.2015382 -0.07751,0.085266 -0.1757,0.085266 -0.07751,0 -0.129191,-0.05426 -0.05168,-0.05426 -0.05168,-0.1421103 0,-0.1162721 0.07493,-0.1963706 0.07493,-0.082682 0.178284,-0.082682 z m -1.018026,1.7104909 -0.113688,-0.08785 q 0.258382,-0.2842205 0.470255,-0.4030764 0.214458,-0.1214397 0.364319,-0.1214397 0.08268,0 0.126608,0.036174 0.04393,0.036174 0.04393,0.098185 0,0.074931 -0.167949,0.6356205 -0.273885,0.9172569 -0.273885,1.1058759 0,0.03617 0.01809,0.06201 0.01809,0.02326 0.03876,0.02326 0.08268,0 0.423747,-0.320394 l 0.100769,0.09818 q -0.353984,0.333313 -0.516764,0.426331 -0.162781,0.09302 -0.266134,0.09302 -0.09043,0 -0.144694,-0.05684 -0.05168,-0.05684 -0.05168,-0.157613 0,-0.322978 0.387574,-1.578716 0.01809,-0.059428 0.01809,-0.1059368 0,-0.051676 -0.04651,-0.051676 -0.05168,0 -0.118856,0.041341 -0.0646,0.041341 -0.291972,0.2635499 z"
         style="font-family:'Monotype Corsiva';-inkscape-font-specification:'Monotype Corsiva'"
         id="path61484" />
      <path
         d="m 31.065125,9.0434826 -0.08785,-0.090434 q 0.330729,-0.3152264 0.5271,-0.4185793 0.19637,-0.1033529 0.335897,-0.1033529 0.05426,0 0.08527,0.023254 0.03101,0.023254 0.03101,0.05426 0,0.023254 -0.01292,0.082682 L 31.827353,9.110662 q 0.26355,-0.2919721 0.661458,-0.5451867 0.211874,-0.131775 0.348817,-0.131775 0.100769,0 0.157613,0.064596 0.05684,0.064596 0.05684,0.1860352 0,0.080099 -0.02325,0.1808677 -0.04134,0.1679485 -0.217041,0.7312219 -0.165364,0.5271003 -0.165364,0.7002163 0,0.05168 0.0155,0.07751 0.0155,0.02584 0.04392,0.02584 0.07493,0 0.235127,-0.144694 0.113689,-0.103353 0.227377,-0.191203 l 0.06459,0.09302 q -0.237711,0.26355 -0.49351,0.423747 -0.162781,0.103353 -0.268717,0.103353 -0.09819,0 -0.152446,-0.07235 -0.05426,-0.06976 -0.05426,-0.22996 0,-0.22996 0.286804,-1.1446337 0.08785,-0.3255617 0.08785,-0.379822 0,-0.080099 -0.0956,-0.080099 -0.103353,0 -0.266134,0.1085205 -0.242879,0.1601971 -0.40566,0.3772382 -0.103353,0.1395265 -0.173116,0.4444176 l -0.20929,0.9017539 h -0.38499 q 0.108521,-0.387573 0.188619,-0.7415568 l 0.229961,-0.9818529 q 0.01292,-0.059428 0.01292,-0.085266 0,-0.069763 -0.05168,-0.069763 -0.04134,0 -0.118856,0.05426 -0.160197,0.1059368 -0.299723,0.2583824 z"
         style="font-family:'Monotype Corsiva';-inkscape-font-specification:'Monotype Corsiva'"
         id="path61486" />
      <path
         d="m 34.775495,9.9633236 0.08527,0.1136884 q -0.633037,0.602031 -1.085206,0.602031 -0.183452,0 -0.281637,-0.124024 -0.0956,-0.124023 -0.0956,-0.397909 0,-0.5529378 0.335897,-1.1007083 0.377238,-0.6227014 0.901754,-0.6227014 0.183451,0 0.279053,0.093018 0.09819,0.090434 0.09819,0.2506309 0,0.1679485 -0.116272,0.3307293 -0.116272,0.1627809 -0.415995,0.3384809 -0.149862,0.085266 -0.640789,0.3074749 -0.02325,0.1395265 -0.02325,0.2661341 0,0.183451 0.05684,0.255798 0.05943,0.07235 0.170532,0.07235 0.105937,0 0.232544,-0.05943 0.170533,-0.0801 0.498678,-0.3255614 z M 33.871157,9.5886692 q 0.415996,-0.1860352 0.625285,-0.4004925 0.142111,-0.1498618 0.142111,-0.2971397 0,-0.1111044 -0.05943,-0.1757 -0.05684,-0.067179 -0.149862,-0.067179 -0.0956,0 -0.186035,0.072347 -0.12144,0.095601 -0.204122,0.2893882 -0.118856,0.2842205 -0.167949,0.5787763 z"
         style="font-family:'Monotype Corsiva';-inkscape-font-specification:'Monotype Corsiva'"
         id="path61488" />
    </g>
  </g>
</svg>
